<svg width="56" height="56" viewBox="0 0 56 56" fill="none" xmlns="http://www.w3.org/2000/svg">
<rect width="56" height="56" rx="14" fill="#615EF0"/>
<path d="M33.586 39.316C33.53 39.316 33.313 39.239 32.935 39.085C32.571 38.945 32.326 38.854 32.2 38.812C31.206 38.406 28.77 37.44 24.892 35.914C23.646 35.424 22.694 34.584 22.036 33.394C21.392 32.204 21.07 30.706 21.07 28.9C21.07 26.478 21.651 24.623 22.813 23.335C23.975 22.033 25.641 21.382 27.811 21.382C29.981 21.382 31.64 22.033 32.788 23.335C33.95 24.623 34.531 26.478 34.531 28.9C34.531 30.552 34.244 31.945 33.67 33.079C33.11 34.213 32.298 35.053 31.234 35.599V35.683L34.447 36.838C34.643 36.908 34.741 37.02 34.741 37.174C34.741 37.314 34.685 37.559 34.573 37.909C34.461 38.273 34.314 38.595 34.132 38.875C33.964 39.169 33.782 39.316 33.586 39.316ZM27.811 33.751C28.931 33.751 29.778 33.338 30.352 32.512C30.926 31.686 31.213 30.482 31.213 28.9C31.213 27.346 30.926 26.17 30.352 25.372C29.778 24.56 28.931 24.154 27.811 24.154C26.691 24.154 25.837 24.56 25.249 25.372C24.675 26.17 24.388 27.346 24.388 28.9C24.388 30.482 24.675 31.686 25.249 32.512C25.837 33.338 26.691 33.751 27.811 33.751Z" fill="white"/>
</svg>
